<svg width="29" height="29" viewBox="0 0 29 29" fill="none" xmlns="http://www.w3.org/2000/svg">
<path d="M20.1489 28.8H8.65063C3.88043 28.8 0 24.9195 0 20.1498V8.65079C0 3.8805 3.88043 0 8.65063 0H20.1489C24.9191 0 28.8 3.8805 28.8 8.65079V20.1498C28.7995 24.9195 24.9185 28.8 20.1489 28.8ZM8.65063 2.70947C5.3744 2.70947 2.70942 5.3745 2.70942 8.65079V20.1498C2.70942 23.4261 5.3744 26.0911 8.65063 26.0911H20.1489C23.4251 26.0911 26.0906 23.4261 26.0906 20.1498V8.65079C26.0901 5.3745 23.4251 2.70947 20.1489 2.70947H8.65063Z" fill="#279C57"/>
</svg>
